HIERARCHY
ROOT Hips
{
	OFFSET 0.000000 0.000000 0.000000
	CHANNELS 6 Xposition Yposition Zposition Xrotation Yrotation Zrotation
	JOINT LeftUpLeg_virtual
	{
		OFFSET 0.000000 0.000000 0.000000
		CHANNELS 3 Xrotation Yrotation Zrotation
		JOINT LeftUpLeg
		{
			OFFSET 10.205400 -3.823500 0.155100
			CHANNELS 3 Xrotation Yrotation Zrotation
			JOINT LeftLeg
			{
				OFFSET 0.708757 -12.982077 0.567790
				CHANNELS 3 Xrotation Yrotation Zrotation
				JOINT LeftFoot
				{
					OFFSET -0.708756 -10.717838 -2.184338
					CHANNELS 3 Xrotation Yrotation Zrotation
					JOINT LeftToeBase
					{
						OFFSET 0.108149 -7.191104 7.560241
						CHANNELS 3 Xrotation Yrotation Zrotation
						JOINT LeftToe_End
						{
							OFFSET 0.070230 0.081724 4.490308
							CHANNELS 3 Xrotation Yrotation Zrotation
							End Site
							{
								OFFSET 0 0 0
							}
						}
					}
				}
			}
		}
	}
	JOINT RightUpLeg_virtual
	{
		OFFSET 0.000000 0.000000 0.000000
		CHANNELS 3 Xrotation Yrotation Zrotation
		JOINT RightUpLeg
		{
			OFFSET -10.205400 -3.823500 0.005500
			CHANNELS 3 Xrotation Yrotation Zrotation
			JOINT RightLeg
			{
				OFFSET -0.708756 -12.982134 0.610632
				CHANNELS 3 Xrotation Yrotation Zrotation
				JOINT RightFoot
				{
					OFFSET 0.708754 -10.717769 -1.945823
					CHANNELS 3 Xrotation Yrotation Zrotation
					JOINT RightToeBase
					{
						OFFSET -0.108140 -7.191069 7.372968
						CHANNELS 3 Xrotation Yrotation Zrotation
						JOINT RightToe_End
						{
							OFFSET -0.070227 0.081735 4.479403
							CHANNELS 3 Xrotation Yrotation Zrotation
							End Site
							{
								OFFSET 0 0 0
							}
						}
					}
				}
			}
		}
	}
	JOINT Spine_virtual
	{
		OFFSET 0.000000 0.000000 0.000000
		CHANNELS 3 Xrotation Yrotation Zrotation
		JOINT Spine
		{
			OFFSET 0.000000 6.876099 0.125700
			CHANNELS 3 Xrotation Yrotation Zrotation
			JOINT Spine1
			{
				OFFSET 0.000000 5.730043 0.104720
				CHANNELS 3 Xrotation Yrotation Zrotation
				JOINT Spine1_split
				{
					OFFSET 0.000000 5.730043 0.104720
					CHANNELS 3 Xrotation Yrotation Zrotation
					JOINT Spine2
					{
						OFFSET 0.000000 5.730043 0.104720
						CHANNELS 3 Xrotation Yrotation Zrotation
						JOINT Neck_virtual
						{
							OFFSET 0.000000 0.000000 0.000000
							CHANNELS 3 Xrotation Yrotation Zrotation
							JOINT Neck
							{
								OFFSET 0.000000 10.314075 0.188496
								CHANNELS 3 Xrotation Yrotation Zrotation
								JOINT Head
								{
									OFFSET 0.000000 7.643700 -2.377400
									CHANNELS 3 Xrotation Yrotation Zrotation
									JOINT HeadTop_End
									{
										OFFSET 0.000000 43.788605 -13.619600
										CHANNELS 3 Xrotation Yrotation Zrotation
										End Site
										{
											OFFSET 0 0 0
										}
									}
								}
							}
						}
						JOINT LeftShoulder_virtual
						{
							OFFSET 0.000000 0.000000 0.000000
							CHANNELS 3 Xrotation Yrotation Zrotation
							JOINT LeftShoulder
							{
								OFFSET 2.196100 4.412489 0.087492
								CHANNELS 3 Xrotation Yrotation Zrotation
								JOINT LeftShoulder_split
								{
									OFFSET 2.196100 4.412489 0.087492
									CHANNELS 3 Xrotation Yrotation Zrotation
									JOINT LeftArm
									{
										OFFSET 8.771219 -2.981674 -0.026999
										CHANNELS 3 Xrotation Yrotation Zrotation
										JOINT LeftForeArm
										{
											OFFSET 8.512804 0.000000 -0.000000
											CHANNELS 3 Xrotation Yrotation Zrotation
											JOINT LeftHand
											{
												OFFSET 18.484802 0.000000 -0.000000
												CHANNELS 3 Xrotation Yrotation Zrotation
												End Site
												{
													OFFSET 0 0 0
												}
											}
										}
									}
								}
							}
						}
						JOINT RightShoulder_virtual
						{
							OFFSET 0.000000 0.000000 0.000000
							CHANNELS 3 Xrotation Yrotation Zrotation
							JOINT RightShoulder
							{
								OFFSET -2.196100 4.412496 0.070690
								CHANNELS 3 Xrotation Yrotation Zrotation
								JOINT RightShoulder_split
								{
									OFFSET -2.196100 4.412496 0.070690
									CHANNELS 3 Xrotation Yrotation Zrotation
									JOINT RightArm
									{
										OFFSET -8.771282 -2.981682 -0.094208
										CHANNELS 3 Xrotation Yrotation Zrotation
										JOINT RightForeArm
										{
											OFFSET -8.494598 0.000000 0.000000
											CHANNELS 3 Xrotation Yrotation Zrotation
											JOINT RightHand
											{
												OFFSET -18.483803 0.000000 0.000001
												CHANNELS 3 Xrotation Yrotation Zrotation
												End Site
												{
													OFFSET 0 0 0
												}
											}
										}
									}
								}
							}
						}
					}
				}
			}
		}
	}
}
MOTION
Frames: 6
Frame Time: 0.03333333
-1.734488 31.430332 -0.706804 0.000000 0.000000 0.000000 1.888958 -16.550517 8.222828 -38.057725 -1.291607 -13.905523 5.773147 -4.446712 2.172473 35.914084 -25.300289 3.186647 -3.543785 -0.102870 2.511628 0.000000 0.000000 0.000000 1.391757 -14.588915 8.382645 20.056106 -13.732375 -7.382280 32.280598 10.351046 -2.704589 -25.068539 -3.101313 6.929513 -26.247835 0.378184 -2.241184 0.000000 0.000000 0.000000 0.897714 -15.363469 7.037340 2.353253 5.343666 1.603501 5.965732 9.378427 2.197613 0.708386 -2.429642 0.878713 0.000000 0.000000 0.000000 4.545092 9.177744 2.248967 -2.475002 -0.220968 -1.800846 -6.394266 -2.170376 -12.022015 0.000000 0.000000 0.000000 4.600713 9.499150 2.054271 0.498893 0.731164 -13.347085 1.324868 2.557681 -1.936422 -18.243422 -25.154574 -69.508288 0.642206 -65.394635 -1.617001 0.000000 0.000000 0.000000 4.814039 9.567865 2.290793 0.685840 11.825819 18.987041 -1.513837 2.965318 -1.599223 -43.695756 57.743956 70.203505 -2.438821 39.768742 1.067617 0.000000 0.000000 0.000000 
-1.635334 31.439547 -0.732477 0.000000 0.000000 0.000000 1.940034 -16.372426 8.113382 -38.234641 -2.000893 -13.932707 5.858246 -4.729099 1.946763 36.077431 -25.750131 2.875700 -3.599332 -0.046240 2.499982 0.000000 0.000000 0.000000 1.436251 -14.412228 8.299309 20.027347 -14.111425 -7.654718 31.890215 10.450026 -2.474294 -25.584482 -2.879415 7.027296 -25.307844 0.528161 -2.570071 0.000000 0.000000 0.000000 1.080730 -15.513921 6.847364 2.371056 5.399418 1.685444 5.932494 9.353587 2.172508 0.801335 -2.471909 0.864913 0.000000 0.000000 0.000000 4.564605 9.153875 2.238300 -2.455978 -0.121534 -1.835735 -6.437624 -2.273983 -12.032158 0.000000 0.000000 0.000000 4.577237 9.470969 2.022148 0.504606 0.656434 -13.283716 1.402748 2.665783 -1.903138 -18.591194 -25.339280 -69.618848 0.730193 -65.464952 -1.543740 0.000000 0.000000 0.000000 4.789624 9.540546 2.284536 0.716858 11.652987 18.943470 -1.657415 2.871924 -1.613509 -44.045189 57.734025 70.393248 -2.413625 39.995740 1.050704 0.000000 0.000000 0.000000 
-1.528359 31.409569 -0.767647 0.000000 0.000000 0.000000 1.894918 -16.442985 7.884030 -38.725499 -2.618040 -13.893097 6.416009 -4.987176 1.630793 36.125410 -26.267535 2.540340 -3.545790 0.124006 2.363670 0.000000 0.000000 0.000000 1.606854 -14.545928 8.072408 20.344280 -14.363270 -7.704413 30.488059 10.568504 -2.192639 -26.299987 -2.570200 6.838889 -23.947147 0.639457 -2.840624 0.000000 0.000000 0.000000 1.205049 -15.720761 6.558461 2.460324 5.512875 1.817845 5.899129 9.322827 2.141703 0.877868 -2.460730 0.828276 0.000000 0.000000 0.000000 4.581314 9.114061 2.207645 -2.668678 -0.011220 -1.860600 -6.745147 -2.419818 -11.939121 0.000000 0.000000 0.000000 4.561194 9.428790 1.977813 0.510882 0.538437 -13.237567 1.382355 2.782863 -1.867138 -19.075390 -25.781942 -69.767643 0.820917 -65.483660 -1.481292 0.000000 0.000000 0.000000 4.771128 9.503102 2.262698 0.739098 11.477360 18.905870 -1.786259 2.753038 -1.570868 -44.384622 57.562232 70.563572 -2.416337 40.662500 1.072816 0.000000 0.000000 0.000000 
-1.438439 31.337221 -0.810926 0.000000 0.000000 0.000000 1.774926 -16.801996 7.566099 -39.370286 -3.137221 -13.799173 7.317099 -5.166882 1.325907 35.923134 -26.728671 2.222173 -3.340886 0.404682 2.047219 0.000000 0.000000 0.000000 1.884928 -14.874813 7.745890 21.009672 -14.549012 -7.507277 28.723654 10.661807 -1.882563 -26.728714 -2.239816 6.296550 -22.866865 0.642233 -2.855244 0.000000 0.000000 0.000000 1.262833 -15.929905 6.214035 2.576481 5.678875 1.981553 5.871648 9.286540 2.107561 0.933811 -2.409241 0.763967 0.000000 0.000000 0.000000 4.592265 9.068779 2.160866 -3.079846 0.074143 -1.876735 -7.275859 -2.581338 -11.757828 0.000000 0.000000 0.000000 4.541067 9.382129 1.930373 0.519122 0.413172 -13.218209 1.258903 2.905358 -1.822846 -19.558896 -26.391457 -69.898175 0.874539 -65.499083 -1.461156 0.000000 0.000000 0.000000 4.748451 9.456989 2.231876 0.746901 11.311522 18.870716 -1.867949 2.691014 -1.544554 -44.583971 57.253142 70.619771 -2.438506 41.647748 1.131897 0.000000 0.000000 0.000000 
-1.357967 31.227654 -0.840668 0.000000 0.000000 0.000000 1.651706 -17.344441 7.200944 -40.047383 -3.577726 -13.678495 8.398408 -5.284583 1.057973 35.354862 -27.129455 1.830100 -3.081633 0.773241 1.587651 0.000000 0.000000 0.000000 2.166537 -15.347071 7.345775 21.866159 -14.767409 -7.179774 26.921677 10.750311 -1.548772 -26.725770 -1.858342 5.499279 -22.357716 0.498949 -2.486120 0.000000 0.000000 0.000000 1.300270 -16.058132 5.847820 2.695567 5.888135 2.171178 5.847647 9.246166 2.069838 0.963320 -2.337729 0.722603 0.000000 0.000000 0.000000 4.584310 9.024882 2.109191 -3.621817 0.103672 -1.879070 -7.954829 -2.727013 -11.526939 0.000000 0.000000 0.000000 4.507670 9.338690 1.886454 0.524400 0.326125 -13.233774 1.083657 2.999863 -1.822144 -19.946903 -27.101559 -69.977392 0.861847 -65.580560 -1.496095 0.000000 0.000000 0.000000 4.714586 9.406210 2.194906 0.737046 11.164214 18.812373 -1.870070 2.706953 -1.587479 -44.575327 56.802701 70.523226 -2.475057 42.848037 1.213319 0.000000 0.000000 0.000000 
-1.289960 31.104937 -0.840368 0.000000 0.000000 0.000000 1.567365 -17.856585 6.817091 -40.751077 -3.964567 -13.511359 9.600867 -5.407115 0.858195 34.416101 -27.546720 1.256789 -2.910778 1.204391 1.093746 0.000000 0.000000 0.000000 2.383851 -15.791882 6.903149 22.787401 -15.042923 -6.833864 25.300537 10.866214 -1.251455 -26.438178 -1.349440 4.580811 -22.358484 0.247730 -1.772656 0.000000 0.000000 0.000000 1.400133 -16.025007 5.486772 2.789909 6.114142 2.395950 5.827914 9.206426 2.025372 0.957473 -2.270521 0.725534 0.000000 0.000000 0.000000 4.551943 8.979496 2.062094 -4.235237 0.084994 -1.860978 -8.700794 -2.837646 -11.278227 0.000000 0.000000 0.000000 4.447943 9.296986 1.845433 0.519475 0.310360 -13.285023 0.891439 3.021906 -1.809482 -20.223864 -27.834428 -70.014398 0.784630 -65.746144 -1.574531 0.000000 0.000000 0.000000 4.665276 9.353033 2.152994 0.706695 11.029504 18.708322 -1.826420 2.767662 -1.666668 -44.376337 56.248732 70.272818 -2.524838 44.154557 1.299464 0.000000 0.000000 0.000000 
